<svg width="185" height="37" viewBox="0 0 185 37" fill="none" xmlns="http://www.w3.org/2000/svg">
<g clip-path="url(#clip0_276_10953)">
<path d="M15.1327 7.75872H-0.0931702V11.1991H9.95096L-0.0931702 26.5463V29.9867H15.1327V26.5463H5.08861L15.1327 11.1991V7.75872Z" fill="#14A2E5"/>
<path d="M35.5404 20.9109C35.5404 18.2345 34.7064 16.1014 33.0427 14.4938C31.379 12.8906 29.254 12.0912 26.6586 12.0912C24.0633 12.0912 21.9604 12.9171 20.3234 14.56C18.6952 16.2074 17.8745 18.3979 17.8745 21.1361C17.8745 23.8743 18.6863 26.0781 20.3056 27.7431C21.9294 29.4126 24.0278 30.2428 26.6054 30.2428C28.6994 30.2428 30.4784 29.7129 31.9513 28.6485C33.4242 27.5886 34.4136 26.2195 34.9238 24.5412H30.0614C29.3161 25.8176 28.1626 26.4491 26.6054 26.4491C25.4564 26.4491 24.507 26.1002 23.7616 25.4024C23.0119 24.7002 22.5904 23.7772 22.4795 22.6289H35.4029C35.4961 22.0989 35.5404 21.5248 35.5404 20.9109ZM22.4884 19.7317C22.6392 18.5613 23.0962 17.6295 23.8504 16.9273C24.6046 16.225 25.5495 15.8806 26.6808 15.8806C27.8121 15.8806 28.7793 16.2295 29.5734 16.9273C30.3764 17.6295 30.8067 18.5613 30.8688 19.7317H22.4884Z" fill="#14A2E5"/>
<path d="M54.0626 14.0786C52.7804 12.7493 51.1301 12.0868 49.1026 12.0868C46.565 12.0868 44.7327 13.054 43.6014 14.984V12.343H39.0896V29.9867H43.6014V20.244C43.6014 18.8661 43.9608 17.8061 44.675 17.0774C45.3849 16.3443 46.352 15.9777 47.5676 15.9777C48.7832 15.9777 49.7415 16.3443 50.4469 17.0774C51.1523 17.8105 51.5027 18.8661 51.5027 20.244V29.9867H55.9791V19.6036C55.9791 17.2497 55.3403 15.408 54.0626 14.0786Z" fill="#14A2E5"/>
<path d="M77.0302 20.9109C77.0302 18.2345 76.1961 16.1014 74.5324 14.4938C72.8688 12.8906 70.7437 12.0912 68.1484 12.0912C65.553 12.0912 63.4502 12.9171 61.8131 14.56C60.1849 16.2074 59.3642 18.3979 59.3642 21.1361C59.3642 23.8743 60.1761 26.0781 61.7954 27.7431C63.4191 29.4126 65.5176 30.2428 68.0996 30.2428C70.1891 30.2428 71.9682 29.7129 73.4411 28.6485C74.914 27.5886 75.9033 26.2195 76.4135 24.5412H71.5511C70.8058 25.8176 69.6523 26.4491 68.0996 26.4491C66.9461 26.4491 65.9967 26.1002 65.2514 25.4024C64.5016 24.7002 64.0802 23.7772 63.9692 22.6289H76.8971C76.9858 22.0989 77.0302 21.5248 77.0302 20.9109ZM63.9737 19.7317C64.1245 18.5613 64.5815 17.6295 65.3357 16.9273C66.0899 16.225 67.0348 15.8806 68.1661 15.8806C69.2974 15.8806 70.2646 16.2295 71.0587 16.9273C71.8617 17.6295 72.292 18.5613 72.3541 19.7317H63.9737Z" fill="#14A2E5"/>
<path d="M99.0127 6.42495H94.4387L87.7175 16.4061L89.807 19.7052L99.0127 6.42495Z" fill="#AEE5FF"/>
<path d="M88.933 20.9727L86.8479 17.6957L85.9783 16.3222L83.4584 12.343H78.4009L84.1283 21.3879L78.4009 29.9867H82.9483L86.209 24.6693L89.6029 29.9867H94.656L88.9286 20.9771L88.933 20.9727Z" fill="#14A2E5"/>
<path d="M104.762 26.4491C103.462 26.4491 102.447 25.981 101.71 25.0314C100.974 24.0863 100.605 22.7967 100.605 21.1626C100.605 19.5285 100.974 18.2389 101.71 17.2938C102.447 16.3487 103.462 15.8761 104.762 15.8761C106.488 15.8761 107.646 16.6093 108.218 18.0755H113.081C112.593 16.1676 111.621 14.6881 110.17 13.6503C108.724 12.6124 106.918 12.0868 104.762 12.0868C102.185 12.0868 100.082 12.9171 98.4626 14.5733C96.8433 16.2295 96.0314 18.4244 96.0314 21.167C96.0314 23.9097 96.8388 26.1046 98.4626 27.7608C100.086 29.417 102.185 30.2473 104.762 30.2473C106.874 30.2473 108.662 29.704 110.126 28.622C111.586 27.54 112.575 26.0781 113.081 24.2276H108.218C107.619 25.7116 106.466 26.4491 104.762 26.4491Z" fill="white"/>
<path d="M116.466 6.42495V29.9911H120.977V6.42495H116.466Z" fill="white"/>
<path d="M140.205 14.5733C138.457 12.9171 136.288 12.0868 133.697 12.0868C131.106 12.0868 128.937 12.9171 127.184 14.5733C125.436 16.2295 124.562 18.4156 124.562 21.1317C124.562 23.8478 125.427 26.0472 127.158 27.7255C128.883 29.3993 131.048 30.2428 133.648 30.2428C136.248 30.2428 138.431 29.3993 140.187 27.7255C141.944 26.0516 142.827 23.8522 142.827 21.1317C142.827 18.42 141.953 16.2295 140.205 14.5733ZM136.896 25.0668C135.991 25.9898 134.908 26.4491 133.648 26.4491C132.388 26.4491 131.323 25.9942 130.449 25.08C129.575 24.1658 129.136 22.863 129.136 21.1626C129.136 19.4623 129.575 18.1594 130.449 17.2452C131.323 16.3355 132.397 15.8761 133.666 15.8761C134.935 15.8761 136.017 16.3355 136.913 17.2452C137.809 18.1594 138.253 19.4579 138.253 21.145C138.253 22.832 137.801 24.1437 136.896 25.0668Z" fill="white"/>
<path d="M158.63 12.343V22.0547C158.63 23.4327 158.27 24.497 157.556 25.239C156.842 25.9854 155.879 26.3564 154.664 26.3564C153.448 26.3564 152.49 25.9854 151.784 25.239C151.079 24.497 150.728 23.4327 150.728 22.0547V12.343H146.248V22.6951C146.248 25.0491 146.891 26.8908 148.169 28.2201C149.446 29.5495 151.088 30.2119 153.093 30.2119C155.653 30.2119 157.498 29.2447 158.63 27.3147V29.9911H163.137V12.3474H158.63V12.343Z" fill="white"/>
<path d="M180.635 6.42495V15.0856C179.357 13.0894 177.502 12.0912 175.071 12.0912C172.64 12.0912 170.635 12.9392 169.06 14.6263C167.48 16.3134 166.695 18.4818 166.695 21.1361C166.695 23.7904 167.489 25.9721 169.078 27.6813C170.666 29.3949 172.653 30.2473 175.04 30.2473C177.427 30.2473 179.295 29.1741 180.639 27.0321V29.9955H185.12V6.42937H180.635V6.42495ZM179.228 24.9696C178.288 25.8971 177.201 26.3564 175.95 26.3564C174.699 26.3564 173.607 25.8882 172.671 24.9519C171.731 24.0201 171.265 22.7481 171.265 21.1317C171.265 19.5153 171.726 18.2566 172.653 17.3424C173.581 16.4282 174.672 15.9689 175.932 15.9689C177.192 15.9689 178.288 16.4282 179.224 17.3557C180.164 18.2787 180.63 19.5462 180.63 21.1582C180.63 22.7702 180.169 24.0466 179.228 24.9696Z" fill="white"/>
</g>
<defs>
<clipPath id="clip0_276_10953">
<rect width="185" height="37" fill="white"/>
</clipPath>
</defs>
</svg>
